<svg id="Capa_1" enable-background="new 0 0 512 512" height="512" viewBox="0 0 512 512" width="512" xmlns="http://www.w3.org/2000/svg"><g><path d="m504.5 377h-22.5v-242h22.5c4.142 0 7.5-3.358 7.5-7.5 0-20.678-16.822-37.5-37.5-37.5h-21.603l6.406-56.596c.131-1.151.197-2.297.197-3.404 0-16.542-13.458-30-30-30s-30 13.458-30 30c0 1.11.066 2.257.197 3.404l6.406 56.596h-21.603c-18.109 0-33.262 12.905-36.747 30h-136.753c-1.989 0-3.897.79-5.303 2.197l-9.697 9.697-9.697-9.697c-1.406-1.407-3.314-2.197-5.303-2.197h-16.753c-3.485-17.095-18.637-30-36.747-30h-21.603l6.405-56.591c.131-1.151.198-2.298.198-3.409 0-16.542-13.458-30-30-30s-30 13.458-30 30c0 1.107.066 2.253.196 3.404l6.407 56.596h-21.603c-20.678 0-37.5 16.822-37.5 37.5 0 4.142 3.358 7.5 7.5 7.5h22.5v242h-22.5c-4.142 0-7.5 3.358-7.5 7.5 0 20.678 16.822 37.5 37.5 37.5h21.603l-6.406 56.596c-.131 1.151-.197 2.297-.197 3.404 0 16.542 13.458 30 30 30s30-13.458 30-30c0-1.11-.066-2.257-.197-3.404l-6.406-56.596h21.603c18.11 0 33.261-12.904 36.745-30h136.755c1.989 0 3.897-.79 5.303-2.197l9.697-9.697 9.697 9.697c1.406 1.407 3.314 2.197 5.303 2.197h16.753c3.485 17.095 18.637 30 36.747 30h21.603l-6.406 56.596c-.131 1.151-.197 2.297-.197 3.404 0 16.542 13.458 30 30 30s30-13.458 30-30c0-1.11-.066-2.257-.197-3.404l-6.406-56.596h21.603c20.678 0 37.5-16.822 37.5-37.5 0-4.142-3.358-7.5-7.5-7.5zm-75-362c8.271 0 15 6.729 15 15 0 .545-.034 1.123-.102 1.717l-6.597 58.283h-16.602l-6.598-58.288c-.067-.591-.101-1.167-.101-1.712 0-8.271 6.729-15 15-15zm-45 90h90c9.778 0 18.12 6.27 21.215 15h-132.43c3.095-8.73 11.437-15 21.215-15zm82.5 30v242h-75v-242zm-384.5-120c8.271 0 15 6.729 15 15 0 .546-.034 1.122-.102 1.717l-6.597 58.283h-16.602l-6.598-58.283c-.067-.594-.101-1.172-.101-1.717 0-8.271 6.729-15 15-15zm-66.215 105c3.095-8.73 11.437-15 21.215-15h90c9.778 0 18.12 6.27 21.215 15zm66.215 377c-8.271 0-15-6.729-15-15 0-.545.034-1.123.102-1.717l6.597-58.283h16.602l6.598 58.288c.067.591.101 1.167.101 1.712 0 8.271-6.729 15-15 15zm45-90h-90c-9.778 0-18.12-6.27-21.215-15h21.215c4.142 0 7.5-3.358 7.5-7.5v-249.5h75v242h-52.5c-4.142 0-7.5 3.358-7.5 7.5s3.358 7.5 7.5 7.5h81.21c-3.096 8.729-11.432 15-21.21 15zm206.606-30-12.803-12.803c-2.929-2.929-7.678-2.929-10.606 0l-12.803 12.803h-162.894v-242h42.894l12.803 12.803c1.464 1.464 3.384 2.197 5.303 2.197s3.839-.732 5.303-2.197l12.803-12.803h162.894v242zm95.394 120c-8.271 0-15-6.729-15-15 0-.545.034-1.123.102-1.717l6.597-58.283h16.602l6.598 58.288c.067.591.101 1.167.101 1.712 0 8.271-6.729 15-15 15zm45-90h-90c-9.778 0-18.12-6.27-21.215-15h132.43c-3.095 8.73-11.437 15-21.215 15z"/><path d="m203.167 273.265h-45.667c-4.142 0-7.5 3.358-7.5 7.5s3.358 7.5 7.5 7.5h45.667c4.142 0 7.5-3.358 7.5-7.5s-3.358-7.5-7.5-7.5z"/><path d="m354.5 273.265h-45.667c-4.142 0-7.5 3.358-7.5 7.5s3.358 7.5 7.5 7.5h45.667c4.142 0 7.5-3.358 7.5-7.5s-3.358-7.5-7.5-7.5z"/><path d="m278.833 273.265h-45.667c-4.142 0-7.5 3.358-7.5 7.5s3.358 7.5 7.5 7.5h45.667c4.142 0 7.5-3.358 7.5-7.5s-3.357-7.5-7.5-7.5z"/><path d="m203.167 243.265h-45.667c-4.142 0-7.5 3.358-7.5 7.5s3.358 7.5 7.5 7.5h45.667c4.142 0 7.5-3.358 7.5-7.5s-3.358-7.5-7.5-7.5z"/><path d="m354.5 243.265h-45.667c-4.142 0-7.5 3.358-7.5 7.5s3.358 7.5 7.5 7.5h45.667c4.142 0 7.5-3.358 7.5-7.5s-3.358-7.5-7.5-7.5z"/><path d="m278.833 243.265h-45.667c-4.142 0-7.5 3.358-7.5 7.5s3.358 7.5 7.5 7.5h45.667c4.142 0 7.5-3.358 7.5-7.5s-3.357-7.5-7.5-7.5z"/><path d="m203.167 213.265h-45.667c-4.142 0-7.5 3.358-7.5 7.5s3.358 7.5 7.5 7.5h45.667c4.142 0 7.5-3.358 7.5-7.5s-3.358-7.5-7.5-7.5z"/><path d="m354.5 213.265h-45.667c-4.142 0-7.5 3.358-7.5 7.5s3.358 7.5 7.5 7.5h45.667c4.142 0 7.5-3.358 7.5-7.5s-3.358-7.5-7.5-7.5z"/><path d="m278.833 213.265h-45.667c-4.142 0-7.5 3.358-7.5 7.5s3.358 7.5 7.5 7.5h45.667c4.142 0 7.5-3.358 7.5-7.5s-3.357-7.5-7.5-7.5z"/></g></svg>